inDegrees=no
num_controls=7
num_derivatives=13
num_iterations=138
num_multipliers=7
num_parameters=0
num_slacks=7
num_states=26
objective=0.522184
objective_accelerations=0.020306
objective_balance=0.002214
objective_effort=0.042775
objective_height=0.445582
objective_ligament=0.011308
solver_duration=1753.606664
status=Solve_Succeeded
success=true
DataType=double
version=3
OpenSimVersion=4.5
endheader
time	/jointset/ground_pelvis/pelvis_tilt/value	/jointset/ground_pelvis/pelvis_tx/value	/jointset/ground_pelvis/pelvis_ty/value	/jointset/hip_l/hip_flexion_l/value	/jointset/hip_l/hip_adduction_l/value	/jointset/hip_l/hip_rotation_l/value	/jointset/back/lumbar_extension/value	/jointset/patellofemoral_l/patellar_flexion_l/value	/jointset/knee_l/knee_flexion_l/value	/jointset/knee_l/knee_adduction_l/value	/jointset/knee_l/knee_rotation_l/value	/jointset/ankle_l/ankle_angle_l/value	/jointset/subtalar_l/subtalar_angle_l/value	/jointset/ground_pelvis/pelvis_tilt/speed	/jointset/ground_pelvis/pelvis_tx/speed	/jointset/ground_pelvis/pelvis_ty/speed	/jointset/hip_l/hip_flexion_l/speed	/jointset/hip_l/hip_adduction_l/speed	/jointset/hip_l/hip_rotation_l/speed	/jointset/back/lumbar_extension/speed	/jointset/patellofemoral_l/patellar_flexion_l/speed	/jointset/knee_l/knee_flexion_l/speed	/jointset/knee_l/knee_adduction_l/speed	/jointset/knee_l/knee_rotation_l/speed	/jointset/ankle_l/ankle_angle_l/speed	/jointset/subtalar_l/subtalar_angle_l/speed	/forceset/tau_hip_flexion_l	/forceset/tau_hip_adduction_l	/forceset/tau_hip_rotation_l	/forceset/tau_knee_flexion_l	/forceset/tau_ankle_angle_l	/forceset/tau_subtalar_angle_l	/forceset/tau_lumbar_extension	lambda_cid13_p0	lambda_cid13_p1	lambda_cid13_p2	lambda_cid13_p3	lambda_cid13_p4	lambda_cid13_p5	lambda_cid14_p0	/jointset/ground_pelvis/pelvis_tilt/accel	/jointset/ground_pelvis/pelvis_tx/accel	/jointset/ground_pelvis/pelvis_ty/accel	/jointset/hip_l/hip_flexion_l/accel	/jointset/hip_l/hip_adduction_l/accel	/jointset/hip_l/hip_rotation_l/accel	/jointset/back/lumbar_extension/accel	/jointset/patellofemoral_l/patellar_flexion_l/accel	/jointset/knee_l/knee_flexion_l/accel	/jointset/knee_l/knee_adduction_l/accel	/jointset/knee_l/knee_rotation_l/accel	/jointset/ankle_l/ankle_angle_l/accel	/jointset/subtalar_l/subtalar_angle_l/accel	gamma_cid13_p0	gamma_cid13_p1	gamma_cid13_p2	gamma_cid13_p3	gamma_cid13_p4	gamma_cid13_p5	gamma_cid14_p0
1	-0.1994171201388706	-0.09370696071024208	0.8109162979118925	1.002603414137532	-0.3130592493419371	-0.1491928238385145	-0.9599305662978977	0.7357379532916635	0.7357379532915319	-0.09187771116488203	-0.1745191959586297	-0.01644749438981341	-0.0246739606414859	0.1200949608332004	0.02872740771086022	0.05305411814620382	-0.2799335876524046	0.01397532614730855	-0.05679702105065755	-0.0025620603803348	-0.1539479383531539	-0.1539479383531588	0.005689301885292252	-1.413694656335008e-05	0.001689686793077303	0.01551441158741001	-0.4126284088260083	0.04283808714640448	-0.003265764147594745	-0.1285619435092648	0.1015489666020481	0.06964210485298991	0.4349323187473187	-14.92303104819618	-27.98032009295214	4.403642086170885	-1.562268689078215	-756.9095961162027	-77.01971601534855	-16.77720694770082	1.48360300433623	0.3560293125209287	0.6847258743387122	-3.62299394589247	0.127704350457411	-0.7107707849792104	0.4799881045907745	-2.142620601097363	-2.142620601097368	-0.09755129671926401	-0.003703909294097887	-0.09718066186251251	0.1075084260577587	-1.799344966282271e-09	-2.03091887236618e-08	6.322612674419956e-09	-4.59105769981202e-10	-1.983386336306723e-08	5.74155317018611e-09	-3.299217288992577e-09
1.01	-0.1981426444385131	-0.0934018393864377	0.8114809100045194	0.9996238889095947	-0.3129128315316922	-0.1497960719695566	-0.9599309614509776	0.7340916134726149	0.7340916134726089	-0.09182528234135912	-0.1745191400844398	-0.01643533347949516	-0.02451312036149364	0.13479514623064	0.03230566811764964	0.05986443604108469	-0.3159741861107088	0.01530983121736326	-0.06385188570975717	0.002536984654165262	-0.1753223178722327	-0.1753223178722361	0.004793011953063843	2.450620058536185e-05	0.000748538613160755	0.01665721758986786	-0.412310089388028	0.0430223107080301	-0.00325969901662518	-0.1281447065067476	0.10126539695367	0.06964663992559016	0.4350956909584954	-15.0096566082798	-27.97675944585398	4.414082485281717	-1.663596868823591	-756.9736771652358	-77.05708499956422	-16.83455414705951	1.462471360412779	0.3600465361455136	0.6786000799325711	-3.59500255685347	0.1365662440626289	-0.7027414875740654	0.5329559371508353	-2.135189675846816	-2.135189675846593	-0.08619023769193043	0.007530524122255165	-0.09167592917793392	0.1182055327625884	-3.794777033238459e-09	-2.419519128424127e-08	8.568120212571064e-09	2.328101941564024e-09	-2.502958382534044e-08	6.131624030899225e-09	-4.06129177687241e-09
1.02	-0.1967213178735863	-0.09306067103228795	0.8121135083426693	0.9962838757448682	-0.3127530201389894	-0.1504698481834285	-0.9598787475069096	0.7322314612486674	0.7322314612487877	-0.09178192089640172	-0.1745187213592999	-0.01643240285759934	-0.02434074425239222	0.1494651337466758	0.03593681377993897	0.0666513672507683	-0.3520311750111771	0.01665404263874159	-0.07090263761680569	0.007959759059512942	-0.1967104193326578	-0.1967104193326592	0.0038758261721441	5.843324384975065e-05	-0.0001563708916236006	0.01782157740923746	-0.411991769950035	0.0432065342696594	-0.00325363388565025	-0.1277274695042277	0.1009818273052923	0.06965117499819423	0.4352590631696824	-15.10515787561551	-27.97239152374291	4.425247257737001	-1.759837451761289	-757.1782735174536	-77.1033873280189	-16.89923057681426	1.477563428055489	0.3666063636209063	0.6800485372992605	-3.626272034325324	0.1296456207221357	-0.7099482345689915	0.544733978760308	-2.145364989366636	-2.145364989366518	-0.1017304664575302	-0.004647130070963245	-0.08993292683607852	0.1118191894401045	-5.04775281022877e-09	-2.784473129419168e-08	1.041627089341975e-08	3.574816864987435e-09	-2.802100256403896e-08	6.636543255835352e-09	-4.836743026390207e-09
1.03	-0.1951540186683517	-0.09268278636639267	0.8128138067562264	0.9925837129367445	-0.3125797358297419	-0.151214056763603	-0.9597691939092799	0.7301574299262791	0.7301574299263907	-0.09174788642832223	-0.1745179796320528	-0.01643819179889889	-0.02415658693198674	0.1639319833842462	0.03966325004263973	0.07339934786051348	-0.3879547869447411	0.01800199224310645	-0.07793422858266418	0.01415466303884288	-0.2180918039994872	-0.2180918039994821	0.00292175480298808	8.841373915317451e-05	-0.0009807333886951261	0.01901574206692358	-0.4123854696233686	0.04336984780126227	-0.003233712567296808	-0.1271439198469104	0.1009284622728657	0.069845314802921	0.4364205549718701	-15.14083216896403	-28.05954585950457	4.449520101801911	-2.173522724116926	-757.8884170090574	-77.28813327911948	-16.97120874422827	1.421837205989654	0.3791328227319338	0.6708214668074994	-3.568416460230186	0.137249765309737	-0.699043776380658	0.6874239932637447	-2.133917906324477	-2.133917906323609	-0.09364846766907794	0.006599887270899054	-0.07558623970428671	0.1240970520349191	-6.293152502627587e-09	-3.14918584209724e-08	1.226036691245923e-08	4.805812474246327e-09	-3.098992842800712e-08	7.142634402855389e-09	-5.612330773475739e-09
